# xmcd
#
# Track frame offsets:
#	150
#	12407
#	24965
#	36272
#	49295
#	63092
#	78085
#	92682
#	107652
#	117075
#	134550
#	144877
#
# Disc length: 2167 seconds
#
# Revision: 0
# Processed by: cddbd v1.5.1PL0 Copyright (c) Steve Scherf et al.
# Submitted via: EasyCDDAExtractor 4.6.9.1
#
DISCID=9208750c
DTITLE=Eddie Low
DYEAR=1996
DGENRE=Country
TTITLE0=Daddy What If
TTITLE1=I Can't Help It (If I'm Still In Love With You)
TTITLE2=Please Don't Tell Me How The Story Ends
TTITLE3=Getting Back To Norma
TTITLE4=Sweet Memories
TTITLE5=Carpenter Made Of Wood
TTITLE6=It Rains Just The Same In Missouri
TTITLE7=I've Come This Far
TTITLE8=The Taker
TTITLE9=You'd Better Sit Down Kids
TTITLE10=If We Make It Through December
TTITLE11=You Game Me A Mountain
EXTD=
EXTT0=
EXTT1=
EXTT2=
EXTT3=
EXTT4=
EXTT5=
EXTT6=
EXTT7=
EXTT8=
EXTT9=
EXTT10=
EXTT11=
PLAYORDER=
